<svg width="161" height="161" viewBox="0 0 161 161" fill="none" xmlns="http://www.w3.org/2000/svg">
<path d="M30.5312 126.526L30.5312 114.24C30.5312 114.24 32.0215 129.742 81.1999 129.742C128.953 129.742 130.347 115.024 130.378 113.744L130.378 113.655C130.378 113.655 130.38 113.686 130.378 113.744L130.378 126.526C130.378 131.497 113.24 144.517 81.1999 144.517C49.1594 144.517 31.2764 132.374 30.5312 126.526Z" fill="url(#paint0_linear_201_519)"/>
<path d="M30.5312 57.5401L30.5312 45.2549C30.5312 45.2549 32.0215 60.7564 81.1999 60.7564C128.953 60.7564 130.347 46.0383 130.378 44.7584L130.378 44.6699C130.378 44.6699 130.38 44.7003 130.378 44.7584L130.378 57.5401C130.378 62.5113 113.24 74.1703 81.1999 74.1703C49.1594 74.1703 31.2764 63.3888 30.5312 57.5401Z" fill="url(#paint1_linear_201_519)"/>
<ellipse cx="80.4551" cy="114.563" rx="19.9695" ry="49.9238" transform="rotate(-90 80.4551 114.563)" fill="url(#paint2_linear_201_519)"/>
<ellipse cx="80.4551" cy="45.5775" rx="19.9695" ry="49.9238" transform="rotate(-90 80.4551 45.5775)" fill="url(#paint3_linear_201_519)"/>
<path d="M21 7.00005L30.5309 117.288C30.5309 117.288 39.608 134.532 80.4547 134.533C121.301 134.534 130.379 116.834 130.379 116.834L139.456 7.00005L21 7.00005Z" fill="url(#paint4_linear_201_519)" fill-opacity="0.3"/>
<defs>
<linearGradient id="paint0_linear_201_519" x1="30.5312" y1="126.817" x2="130.379" y2="126.817" gradientUnits="userSpaceOnUse">
<stop offset="0.00117753" stop-color="#1544F5"/>
<stop offset="0.621124" stop-color="#98A2FF"/>
<stop offset="1" stop-color="#1544F5"/>
</linearGradient>
<linearGradient id="paint1_linear_201_519" x1="30.5312" y1="57.8316" x2="130.379" y2="57.8316" gradientUnits="userSpaceOnUse">
<stop offset="0.00117753" stop-color="#1544F5"/>
<stop offset="0.621124" stop-color="#98A2FF"/>
<stop offset="1" stop-color="#1544F5"/>
</linearGradient>
<linearGradient id="paint2_linear_201_519" x1="88.2692" y1="115.439" x2="47.4713" y2="123.166" gradientUnits="userSpaceOnUse">
<stop stop-color="#0E29C0"/>
<stop offset="0.576658" stop-color="#4D66F1"/>
<stop offset="1" stop-color="#2641D5"/>
</linearGradient>
<linearGradient id="paint3_linear_201_519" x1="88.2692" y1="46.4533" x2="47.4713" y2="54.1808" gradientUnits="userSpaceOnUse">
<stop stop-color="#0E29C0"/>
<stop offset="0.576658" stop-color="#4D66F1"/>
<stop offset="1" stop-color="#2641D5"/>
</linearGradient>
<linearGradient id="paint4_linear_201_519" x1="74.5547" y1="97.7706" x2="74.5547" y2="20.1618" gradientUnits="userSpaceOnUse">
<stop stop-color="#FF07E6"/>
<stop offset="1" stop-color="#18AEFF" stop-opacity="0"/>
</linearGradient>
</defs>
</svg>
