<svg width="108" height="150" viewBox="0 0 108 150" fill="none" xmlns="http://www.w3.org/2000/svg">
<path d="M6 118C34.5843 118 27.4903 118 54 118C80.5097 118 76.1124 118 102 118C102 124.999 102 135.447 102 135.447C93.2206 140.871 78 145 54 145C18.5 145 6 136.173 6 136.173C6 136.173 6 125.295 6 118Z" fill="url(#paint0_linear)"/>
<ellipse cx="54" cy="117.667" rx="48" ry="10.6667" transform="rotate(-180 54 117.667)" fill="#060F8F"/>
<path d="M50.8875 78.6674C45.893 73.3882 40.1492 60.3819 33.0159 55.5996C26.3849 51.1542 10.8779 49.5933 7.21569 47.4007C9.31875 44.1802 25.2882 37.0099 39.5713 45.5611C56.7947 55.8728 52.9906 75.4469 50.8875 78.6674Z" fill="url(#paint1_linear)"/>
<path d="M44.5195 74.5C40.2461 68.8529 41.0195 64.3689 31.5195 58C24.8637 53.5379 24.0189 52.0003 7.11362 47.567C13.9048 46.8905 20.9987 42.507 36.0196 51.4999C48.3275 59.7514 42.7136 67.2412 44.5195 74.5Z" fill="#060F8F"/>
<path d="M103.777 48.7223C97.0556 51.6736 82.0712 52.1931 75.3558 57.5512C69.1134 62.5319 63.7569 77.8418 60.584 80.7015C57.7203 77.2026 54.0545 57.7978 66.4292 46.6447C81.3516 33.1958 100.914 45.2234 103.777 48.7223Z" fill="url(#paint2_linear)"/>
<path d="M103.777 48.7213C96.8436 50.7781 85.4263 55.1269 78.6858 60.5051C72.42 65.5045 69.9339 67.6944 60.7357 80.8756C61.6589 73.607 62.7321 63.0052 74.5475 54.4525C86.1343 45.2077 95.7502 47.571 103.777 48.7213Z" fill="#060F8F"/>
<path d="M19.0366 69.4439C39.5044 69.4439 34.4247 69.4439 53.407 69.4439C72.3892 69.4439 69.2405 69.4439 87.7773 69.4439C87.7773 84.4987 72.3892 96.7031 53.407 96.7031C34.4247 96.7031 19.0366 84.4987 19.0366 69.4439Z" fill="url(#paint3_linear)"/>
<ellipse cx="53.407" cy="69.4439" rx="34.3704" ry="8.2963" transform="rotate(-180 53.407 69.4439)" fill="#060F8F"/>
<path d="M55.5653 21.2983C55.5653 21.2983 35.3325 65.5557 33.476 67.4288L58.1657 72.6266L55.5653 21.2983Z" fill="url(#paint4_linear)"/>
<path d="M55.5708 21.301L73.4277 66.8476L58.1693 72.6262L55.5708 21.301Z" fill="url(#paint5_linear)"/>
<defs>
<linearGradient id="paint0_linear" x1="18.4045" y1="137.37" x2="98.2247" y2="137.37" gradientUnits="userSpaceOnUse">
<stop stop-color="#1C25A8"/>
<stop offset="0.395833" stop-color="#0E19B1"/>
<stop offset="1" stop-color="#1544F5"/>
</linearGradient>
<linearGradient id="paint1_linear" x1="40.2235" y1="45.9985" x2="32.2715" y2="57.7569" gradientUnits="userSpaceOnUse">
<stop stop-color="#CE0D98"/>
<stop offset="1" stop-color="#0C35CF"/>
</linearGradient>
<linearGradient id="paint2_linear" x1="88.0928" y1="76.8334" x2="56.3778" y2="54.6155" gradientUnits="userSpaceOnUse">
<stop stop-color="#CE0D98"/>
<stop offset="1" stop-color="#0C35CF"/>
</linearGradient>
<linearGradient id="paint3_linear" x1="25.743" y1="96.7031" x2="85.1041" y2="89.2388" gradientUnits="userSpaceOnUse">
<stop stop-color="#052CC0"/>
<stop offset="0.395833" stop-color="#21FFBD"/>
<stop offset="1" stop-color="#1544F5"/>
</linearGradient>
<linearGradient id="paint4_linear" x1="79.8245" y1="45.2294" x2="56.7108" y2="0.291738" gradientUnits="userSpaceOnUse">
<stop stop-color="#052CC0"/>
<stop offset="0.395833" stop-color="#C335DA"/>
<stop offset="1" stop-color="#1544F5"/>
</linearGradient>
<linearGradient id="paint5_linear" x1="72.4577" y1="69.5505" x2="75.7368" y2="26.4939" gradientUnits="userSpaceOnUse">
<stop stop-color="#052CC0"/>
<stop offset="0.395833" stop-color="#21FFBD"/>
<stop offset="1" stop-color="#1544F5"/>
</linearGradient>
</defs>
</svg>
