<svg width="83" height="83" viewBox="0 0 83 83" fill="none" xmlns="http://www.w3.org/2000/svg">
<g clip-path="url(#clip0)">
<path d="M35.3315 42.1851L20.694 51.2956L4 46.0571L35.3309 26.9627L35.3315 42.1851Z" fill="url(#paint0_linear)"/>
<path d="M20.5193 51.15L4.0004 45.9809L4.0004 30.6981L20.5193 35.8672L20.5193 51.15Z" fill="url(#paint1_linear)"/>
<path d="M35.3317 26.8458L20.6942 35.9563L4.00018 30.7178L18.6377 21.6073L35.3317 26.8458Z" fill="url(#paint2_linear)"/>
<path d="M57.3226 50.9541L40.8037 46.1782L40.8037 30.8954L57.3226 35.6713L57.3226 50.9541Z" fill="url(#paint3_linear)"/>
<path d="M57.455 51.0345L42.8175 60.145L26.1235 54.9065L57.4544 35.8121L57.455 51.0345Z" fill="url(#paint4_linear)"/>
<path d="M42.6428 59.9995L26.1239 54.8303L26.1239 39.5475L42.6428 44.7167L42.6428 59.9995Z" fill="url(#paint5_linear)"/>
<path d="M57.4551 35.6953L42.8176 44.8057L26.1237 39.5672L40.7611 30.4568L57.4551 35.6953Z" fill="url(#paint6_linear)"/>
<path d="M76.4963 59.8035L59.9774 55.0277L59.9775 39.7449L76.4963 44.5207L76.4963 59.8035Z" fill="url(#paint7_linear)"/>
<path d="M81.0534 56.9341L66.4159 66.0446L49.7219 60.8061L81.0528 41.7117L81.0534 56.9341Z" fill="url(#paint8_linear)"/>
<path d="M66.2412 65.899L49.7223 60.7299L49.7223 45.4471L66.2412 50.6163L66.2412 65.899Z" fill="url(#paint9_linear)"/>
<path d="M58.5729 21.8494L59.6409 43.5324C59.6409 43.5324 60.6581 46.9225 65.2354 46.9227C69.8126 46.9228 70.8298 43.4431 70.8298 43.4431L71.847 21.8494L58.5729 21.8494Z" fill="url(#paint10_linear)" fill-opacity="0.3"/>
<path fill-rule="evenodd" clip-rule="evenodd" d="M66.4174 50.7053L81.0549 41.5949L64.3609 36.3564L49.7234 45.4669L66.4174 50.7053ZM65.2113 45.4479C67.2477 45.4479 68.8985 44.7875 68.8985 43.973C68.8985 43.1584 67.2477 42.4981 65.2113 42.4981C63.1749 42.4981 61.524 43.1584 61.524 43.973C61.524 44.7875 63.1749 45.4479 65.2113 45.4479Z" fill="url(#paint11_linear)"/>
</g>
<defs>
<linearGradient id="paint0_linear" x1="27.341" y1="51.044" x2="11.9892" y2="37.1982" gradientUnits="userSpaceOnUse">
<stop stop-color="#CE0D98"/>
<stop offset="1" stop-color="#1544F5"/>
</linearGradient>
<linearGradient id="paint1_linear" x1="14.3261" y1="52.4148" x2="5.62657" y2="13.5366" gradientUnits="userSpaceOnUse">
<stop stop-color="#052CC0"/>
<stop offset="0.395833" stop-color="#75BDBD"/>
<stop offset="1" stop-color="#1544F5"/>
</linearGradient>
<linearGradient id="paint2_linear" x1="27.3418" y1="35.7047" x2="11.99" y2="21.8589" gradientUnits="userSpaceOnUse">
<stop stop-color="#CE0D98"/>
<stop offset="1" stop-color="#1544F5"/>
</linearGradient>
<linearGradient id="paint3_linear" x1="49.0632" y1="50.9541" x2="49.0632" y2="30.8954" gradientUnits="userSpaceOnUse">
<stop stop-color="#052CC0"/>
<stop offset="1" stop-color="#5705C0"/>
</linearGradient>
<linearGradient id="paint4_linear" x1="57.1456" y1="53.2866" x2="23.9395" y2="29.1768" gradientUnits="userSpaceOnUse">
<stop stop-color="#052CC0"/>
<stop offset="0.395833" stop-color="#75BDBD"/>
<stop offset="1" stop-color="#1544F5"/>
</linearGradient>
<linearGradient id="paint5_linear" x1="34.3833" y1="59.6061" x2="34.3833" y2="39.5475" gradientUnits="userSpaceOnUse">
<stop stop-color="#052CC0"/>
<stop offset="1" stop-color="#5705C0"/>
</linearGradient>
<linearGradient id="paint6_linear" x1="52.4135" y1="43.1942" x2="18.2783" y2="20.9016" gradientUnits="userSpaceOnUse">
<stop stop-color="#052CC0"/>
<stop offset="0.395833" stop-color="#75BDBD"/>
<stop offset="1" stop-color="#1544F5"/>
</linearGradient>
<linearGradient id="paint7_linear" x1="68.2369" y1="59.8035" x2="68.2369" y2="39.7449" gradientUnits="userSpaceOnUse">
<stop stop-color="#052CC0"/>
<stop offset="1" stop-color="#5705C0"/>
</linearGradient>
<linearGradient id="paint8_linear" x1="80.7439" y1="59.1862" x2="47.5379" y2="35.0764" gradientUnits="userSpaceOnUse">
<stop stop-color="#052CC0"/>
<stop offset="0.395833" stop-color="#75BDBD"/>
<stop offset="1" stop-color="#1544F5"/>
</linearGradient>
<linearGradient id="paint9_linear" x1="60.048" y1="67.1639" x2="51.3485" y2="28.2857" gradientUnits="userSpaceOnUse">
<stop stop-color="#052CC0"/>
<stop offset="0.395833" stop-color="#75BDBD"/>
<stop offset="1" stop-color="#1544F5"/>
</linearGradient>
<linearGradient id="paint10_linear" x1="64.5742" y1="39.6951" x2="64.5742" y2="24.437" gradientUnits="userSpaceOnUse">
<stop stop-color="#1544F5"/>
<stop offset="1" stop-color="#18AEFF" stop-opacity="0"/>
</linearGradient>
<linearGradient id="paint11_linear" x1="73.0637" y1="50.4538" x2="57.7119" y2="36.608" gradientUnits="userSpaceOnUse">
<stop stop-color="#CE0D98"/>
<stop offset="1" stop-color="#1544F5"/>
</linearGradient>
<clipPath id="clip0">
<rect width="83" height="83" fill="white"/>
</clipPath>
</defs>
</svg>
