<svg width="1240" height="780" viewBox="0 0 1240 780" fill="none" xmlns="http://www.w3.org/2000/svg">
<g style="mix-blend-mode:screen" opacity="0.5">
<line x1="8.82074" y1="6.95814e-09" x2="8.82071" y2="780" stroke="#003057" stroke-width="0.318367"/>
<line x1="21.5431" y1="6.95814e-09" x2="21.543" y2="780" stroke="#003057" stroke-width="0.318367"/>
<line x1="742.483" y1="5.43217e-09" x2="742.483" y2="780" stroke="#003057" stroke-width="0.318367"/>
<line x1="754.702" y1="5.43217e-09" x2="754.702" y2="780" stroke="#003057" stroke-width="0.318367"/>
<line x1="1239.09" y1="719.063" x2="-1.05845e-08" y2="719.062" stroke="#003057" stroke-width="0.318367"/>
<line x1="1239.09" y1="731.282" x2="-1.05845e-08" y2="731.282" stroke="#003057" stroke-width="0.318367"/>
<line x1="155.956" y1="5.43217e-09" x2="155.955" y2="780" stroke="#003057" stroke-width="0.318367"/>
<line x1="168.175" y1="5.43217e-09" x2="168.175" y2="780" stroke="#003057" stroke-width="0.318367"/>
<line x1="1239.09" y1="132.535" x2="-1.05845e-08" y2="132.535" stroke="#003057" stroke-width="0.318367"/>
<line x1="1239.09" y1="144.755" x2="-1.05845e-08" y2="144.754" stroke="#003057" stroke-width="0.318367"/>
<line x1="889.115" y1="5.43217e-09" x2="889.115" y2="780" stroke="#003057" stroke-width="0.318367"/>
<line x1="901.334" y1="5.43217e-09" x2="901.334" y2="780" stroke="#003057" stroke-width="0.318367"/>
<line x1="278.149" y1="5.43217e-09" x2="278.149" y2="780" stroke="#003057" stroke-width="0.318367"/>
<line x1="290.368" y1="5.43217e-09" x2="290.368" y2="780" stroke="#003057" stroke-width="0.318367"/>
<line x1="1239.09" y1="254.728" x2="-1.05845e-08" y2="254.728" stroke="#003057" stroke-width="0.318367"/>
<line x1="1239.09" y1="266.948" x2="-1.05845e-08" y2="266.948" stroke="#003057" stroke-width="0.318367"/>
<line x1="1011.31" y1="5.43217e-09" x2="1011.31" y2="780" stroke="#003057" stroke-width="0.318367"/>
<line x1="1023.53" y1="5.43217e-09" x2="1023.53" y2="780" stroke="#003057" stroke-width="0.318367"/>
<line x1="449.219" y1="5.43217e-09" x2="449.219" y2="780" stroke="#003057" stroke-width="0.318367"/>
<line x1="461.439" y1="5.43217e-09" x2="461.439" y2="780" stroke="#003057" stroke-width="0.318367"/>
<line x1="1239.09" y1="425.799" x2="-1.05845e-08" y2="425.799" stroke="#003057" stroke-width="0.318367"/>
<line x1="1239.09" y1="438.018" x2="-1.05845e-08" y2="438.018" stroke="#003057" stroke-width="0.318367"/>
<line x1="1182.38" y1="5.43217e-09" x2="1182.38" y2="780" stroke="#003057" stroke-width="0.318367"/>
<line x1="1194.6" y1="5.43217e-09" x2="1194.6" y2="780" stroke="#003057" stroke-width="0.318367"/>
<line x1="595.851" y1="5.43217e-09" x2="595.851" y2="780" stroke="#003057" stroke-width="0.318367"/>
<line x1="608.07" y1="5.43217e-09" x2="608.07" y2="780" stroke="#003057" stroke-width="0.318367"/>
<line x1="1239.09" y1="572.431" x2="-1.05845e-08" y2="572.431" stroke="#003057" stroke-width="0.318367"/>
<line x1="1239.09" y1="584.65" x2="-1.05845e-08" y2="584.65" stroke="#003057" stroke-width="0.318367"/>
<line x1="33.7623" y1="5.44932e-09" x2="33.7623" y2="780" stroke="#003057" stroke-width="0.318367"/>
<line x1="45.9816" y1="5.44932e-09" x2="45.9816" y2="780" stroke="#003057" stroke-width="0.318367"/>
<line x1="1239.09" y1="10.3472" x2="-1.05993e-08" y2="10.347" stroke="#003057" stroke-width="0.318367"/>
<line x1="1239.09" y1="22.5613" x2="-1.05993e-08" y2="22.5611" stroke="#003057" stroke-width="0.318367"/>
<line x1="766.922" y1="5.43217e-09" x2="766.922" y2="780" stroke="#003057" stroke-width="0.318367"/>
<line x1="779.141" y1="5.43217e-09" x2="779.141" y2="780" stroke="#003057" stroke-width="0.318367"/>
<line x1="1239.09" y1="743.501" x2="-1.05845e-08" y2="743.501" stroke="#003057" stroke-width="0.318367"/>
<line x1="1239.09" y1="755.721" x2="-1.05845e-08" y2="755.72" stroke="#003057" stroke-width="0.318367"/>
<line x1="180.394" y1="5.43217e-09" x2="180.394" y2="780" stroke="#003057" stroke-width="0.318367"/>
<line x1="192.613" y1="5.43217e-09" x2="192.613" y2="780" stroke="#003057" stroke-width="0.318367"/>
<line x1="1239.09" y1="156.974" x2="-1.05845e-08" y2="156.974" stroke="#003057" stroke-width="0.318367"/>
<line x1="1239.09" y1="169.193" x2="-1.05845e-08" y2="169.193" stroke="#003057" stroke-width="0.318367"/>
<line x1="913.553" y1="5.43217e-09" x2="913.553" y2="780" stroke="#003057" stroke-width="0.318367"/>
<line x1="925.773" y1="5.43217e-09" x2="925.773" y2="780" stroke="#003057" stroke-width="0.318367"/>
<line x1="327.026" y1="5.43217e-09" x2="327.026" y2="780" stroke="#003057" stroke-width="0.318367"/>
<line x1="339.245" y1="5.43217e-09" x2="339.245" y2="780" stroke="#003057" stroke-width="0.318367"/>
<line x1="1239.09" y1="303.606" x2="-1.05845e-08" y2="303.606" stroke="#003057" stroke-width="0.318367"/>
<line x1="1239.09" y1="315.825" x2="-1.05845e-08" y2="315.825" stroke="#003057" stroke-width="0.318367"/>
<line x1="1060.19" y1="5.43217e-09" x2="1060.19" y2="780" stroke="#003057" stroke-width="0.318367"/>
<line x1="1072.4" y1="5.43217e-09" x2="1072.4" y2="780" stroke="#003057" stroke-width="0.318367"/>
<line x1="473.658" y1="5.43217e-09" x2="473.658" y2="780" stroke="#003057" stroke-width="0.318367"/>
<line x1="485.877" y1="5.43217e-09" x2="485.877" y2="780" stroke="#003057" stroke-width="0.318367"/>
<line x1="1239.09" y1="450.238" x2="-1.05845e-08" y2="450.237" stroke="#003057" stroke-width="0.318367"/>
<line x1="1239.09" y1="462.457" x2="-1.05845e-08" y2="462.457" stroke="#003057" stroke-width="0.318367"/>
<line x1="620.29" y1="5.43217e-09" x2="620.29" y2="780" stroke="#003057" stroke-width="0.318367"/>
<line x1="632.509" y1="5.43217e-09" x2="632.509" y2="780" stroke="#003057" stroke-width="0.318367"/>
<line x1="1239.09" y1="596.869" x2="-1.05845e-08" y2="596.869" stroke="#003057" stroke-width="0.318367"/>
<line x1="1239.09" y1="609.089" x2="-1.05845e-08" y2="609.089" stroke="#003057" stroke-width="0.318367"/>
<line x1="58.2009" y1="5.43217e-09" x2="58.2009" y2="780" stroke="#003057" stroke-width="0.318367"/>
<line x1="70.4203" y1="5.43217e-09" x2="70.4202" y2="780" stroke="#003057" stroke-width="0.318367"/>
<line x1="1239.09" y1="34.7806" x2="-1.05845e-08" y2="34.7805" stroke="#003057" stroke-width="0.318367"/>
<line x1="1239.09" y1="46.9999" x2="-1.05845e-08" y2="46.9997" stroke="#003057" stroke-width="0.318367"/>
<line x1="791.36" y1="5.43217e-09" x2="791.36" y2="780" stroke="#003057" stroke-width="0.318367"/>
<line x1="803.58" y1="5.43217e-09" x2="803.58" y2="780" stroke="#003057" stroke-width="0.318367"/>
<line x1="204.833" y1="5.42079e-09" x2="204.833" y2="780" stroke="#003057" stroke-width="0.318367"/>
<line x1="217.052" y1="5.42079e-09" x2="217.052" y2="780" stroke="#003057" stroke-width="0.318367"/>
<line x1="1239.09" y1="181.412" x2="-1.05747e-08" y2="181.412" stroke="#003057" stroke-width="0.318367"/>
<line x1="1239.09" y1="193.632" x2="-1.05747e-08" y2="193.632" stroke="#003057" stroke-width="0.318367"/>
<line x1="937.992" y1="5.43217e-09" x2="937.992" y2="780" stroke="#003057" stroke-width="0.318367"/>
<line x1="950.211" y1="5.43217e-09" x2="950.211" y2="780" stroke="#003057" stroke-width="0.318367"/>
<line x1="351.465" y1="5.43217e-09" x2="351.465" y2="780" stroke="#003057" stroke-width="0.318367"/>
<line x1="363.684" y1="5.43217e-09" x2="363.684" y2="780" stroke="#003057" stroke-width="0.318367"/>
<line x1="1239.09" y1="328.044" x2="-1.05845e-08" y2="328.044" stroke="#003057" stroke-width="0.318367"/>
<line x1="1239.09" y1="340.264" x2="-1.05845e-08" y2="340.264" stroke="#003057" stroke-width="0.318367"/>
<line x1="1084.62" y1="5.43217e-09" x2="1084.62" y2="780" stroke="#003057" stroke-width="0.318367"/>
<line x1="1096.84" y1="5.43217e-09" x2="1096.84" y2="780" stroke="#003057" stroke-width="0.318367"/>
<line x1="498.097" y1="5.43217e-09" x2="498.096" y2="780" stroke="#003057" stroke-width="0.318367"/>
<line x1="510.316" y1="5.43217e-09" x2="510.316" y2="780" stroke="#003057" stroke-width="0.318367"/>
<line x1="1239.09" y1="474.676" x2="-1.05845e-08" y2="474.676" stroke="#003057" stroke-width="0.318367"/>
<line x1="1239.09" y1="486.896" x2="-1.05845e-08" y2="486.895" stroke="#003057" stroke-width="0.318367"/>
<line x1="644.728" y1="5.43217e-09" x2="644.728" y2="780" stroke="#003057" stroke-width="0.318367"/>
<line x1="656.948" y1="5.43217e-09" x2="656.948" y2="780" stroke="#003057" stroke-width="0.318367"/>
<line x1="1239.09" y1="621.308" x2="-1.05845e-08" y2="621.308" stroke="#003057" stroke-width="0.318367"/>
<line x1="1239.09" y1="633.527" x2="-1.05845e-08" y2="633.527" stroke="#003057" stroke-width="0.318367"/>
<line x1="82.6396" y1="5.42079e-09" x2="82.6395" y2="780" stroke="#003057" stroke-width="0.318367"/>
<line x1="94.8589" y1="5.42079e-09" x2="94.8588" y2="780" stroke="#003057" stroke-width="0.318367"/>
<line x1="1239.09" y1="59.2192" x2="-1.05747e-08" y2="59.2191" stroke="#003057" stroke-width="0.318367"/>
<line x1="1239.09" y1="71.4386" x2="-1.05747e-08" y2="71.4385" stroke="#003057" stroke-width="0.318367"/>
<line x1="815.799" y1="5.43217e-09" x2="815.799" y2="780" stroke="#003057" stroke-width="0.318367"/>
<line x1="828.018" y1="5.43217e-09" x2="828.018" y2="780" stroke="#003057" stroke-width="0.318367"/>
<line x1="229.271" y1="5.43217e-09" x2="229.271" y2="780" stroke="#003057" stroke-width="0.318367"/>
<line x1="241.491" y1="5.43217e-09" x2="241.491" y2="780" stroke="#003057" stroke-width="0.318367"/>
<line x1="1239.09" y1="205.851" x2="-1.05845e-08" y2="205.851" stroke="#003057" stroke-width="0.318367"/>
<line x1="1239.09" y1="218.07" x2="-1.05845e-08" y2="218.07" stroke="#003057" stroke-width="0.318367"/>
<line x1="962.431" y1="5.43217e-09" x2="962.431" y2="780" stroke="#003057" stroke-width="0.318367"/>
<line x1="974.65" y1="5.43217e-09" x2="974.65" y2="780" stroke="#003057" stroke-width="0.318367"/>
<line x1="375.903" y1="5.43217e-09" x2="375.903" y2="780" stroke="#003057" stroke-width="0.318367"/>
<line x1="388.123" y1="5.43217e-09" x2="388.123" y2="780" stroke="#003057" stroke-width="0.318367"/>
<line x1="1239.09" y1="352.483" x2="-1.05845e-08" y2="352.483" stroke="#003057" stroke-width="0.318367"/>
<line x1="1239.09" y1="364.702" x2="-1.05845e-08" y2="364.702" stroke="#003057" stroke-width="0.318367"/>
<line x1="1109.06" y1="5.43217e-09" x2="1109.06" y2="780" stroke="#003057" stroke-width="0.318367"/>
<line x1="1121.28" y1="5.43217e-09" x2="1121.28" y2="780" stroke="#003057" stroke-width="0.318367"/>
<line x1="522.535" y1="5.43217e-09" x2="522.535" y2="780" stroke="#003057" stroke-width="0.318367"/>
<line x1="534.754" y1="5.43217e-09" x2="534.754" y2="780" stroke="#003057" stroke-width="0.318367"/>
<line x1="1239.09" y1="499.115" x2="-1.05845e-08" y2="499.115" stroke="#003057" stroke-width="0.318367"/>
<line x1="1239.09" y1="511.334" x2="-1.05845e-08" y2="511.334" stroke="#003057" stroke-width="0.318367"/>
<line x1="669.167" y1="5.43217e-09" x2="669.167" y2="780" stroke="#003057" stroke-width="0.318367"/>
<line x1="681.386" y1="5.43217e-09" x2="681.386" y2="780" stroke="#003057" stroke-width="0.318367"/>
<line x1="1239.09" y1="645.747" x2="-1.05845e-08" y2="645.747" stroke="#003057" stroke-width="0.318367"/>
<line x1="1239.09" y1="657.966" x2="-1.05845e-08" y2="657.966" stroke="#003057" stroke-width="0.318367"/>
<line x1="107.078" y1="5.41229e-09" x2="107.078" y2="780" stroke="#003057" stroke-width="0.318367"/>
<line x1="119.298" y1="5.41229e-09" x2="119.298" y2="780" stroke="#003057" stroke-width="0.318367"/>
<line x1="1239.09" y1="83.6578" x2="-1.05676e-08" y2="83.6577" stroke="#003057" stroke-width="0.318367"/>
<line x1="1239.09" y1="95.8772" x2="-1.05676e-08" y2="95.8771" stroke="#003057" stroke-width="0.318367"/>
<line x1="840.238" y1="5.43217e-09" x2="840.237" y2="780" stroke="#003057" stroke-width="0.318367"/>
<line x1="852.457" y1="5.43217e-09" x2="852.457" y2="780" stroke="#003057" stroke-width="0.318367"/>
<line x1="253.71" y1="5.43217e-09" x2="253.71" y2="780" stroke="#003057" stroke-width="0.318367"/>
<line x1="265.929" y1="5.43217e-09" x2="265.929" y2="780" stroke="#003057" stroke-width="0.318367"/>
<line x1="1239.09" y1="230.29" x2="-1.05845e-08" y2="230.29" stroke="#003057" stroke-width="0.318367"/>
<line x1="1239.09" y1="242.509" x2="-1.05845e-08" y2="242.509" stroke="#003057" stroke-width="0.318367"/>
<line x1="986.869" y1="5.43217e-09" x2="986.869" y2="780" stroke="#003057" stroke-width="0.318367"/>
<line x1="999.089" y1="5.43217e-09" x2="999.089" y2="780" stroke="#003057" stroke-width="0.318367"/>
<line x1="400.342" y1="5.43217e-09" x2="400.342" y2="780" stroke="#003057" stroke-width="0.318367"/>
<line x1="412.561" y1="5.43217e-09" x2="412.561" y2="780" stroke="#003057" stroke-width="0.318367"/>
<line x1="1239.09" y1="376.922" x2="-1.05845e-08" y2="376.921" stroke="#003057" stroke-width="0.318367"/>
<line x1="1239.09" y1="389.141" x2="-1.05845e-08" y2="389.141" stroke="#003057" stroke-width="0.318367"/>
<line x1="1133.5" y1="5.43217e-09" x2="1133.5" y2="780" stroke="#003057" stroke-width="0.318367"/>
<line x1="1145.72" y1="5.43217e-09" x2="1145.72" y2="780" stroke="#003057" stroke-width="0.318367"/>
<line x1="1206.82" y1="5.43217e-09" x2="1206.82" y2="780" stroke="#003057" stroke-width="0.318367"/>
<line x1="546.974" y1="5.43217e-09" x2="546.974" y2="780" stroke="#003057" stroke-width="0.318367"/>
<line x1="559.193" y1="5.43217e-09" x2="559.193" y2="780" stroke="#003057" stroke-width="0.318367"/>
<line x1="1239.09" y1="523.553" x2="-1.05845e-08" y2="523.553" stroke="#003057" stroke-width="0.318367"/>
<line x1="1239.09" y1="535.773" x2="-1.05845e-08" y2="535.773" stroke="#003057" stroke-width="0.318367"/>
<line x1="693.606" y1="5.43217e-09" x2="693.606" y2="780" stroke="#003057" stroke-width="0.318367"/>
<line x1="705.825" y1="5.43217e-09" x2="705.825" y2="780" stroke="#003057" stroke-width="0.318367"/>
<line x1="1239.09" y1="670.185" x2="-1.05845e-08" y2="670.185" stroke="#003057" stroke-width="0.318367"/>
<line x1="1239.09" y1="682.405" x2="-1.05845e-08" y2="682.404" stroke="#003057" stroke-width="0.318367"/>
<line x1="131.517" y1="5.41229e-09" x2="131.517" y2="780" stroke="#003057" stroke-width="0.318367"/>
<line x1="143.736" y1="5.41229e-09" x2="143.736" y2="780" stroke="#003057" stroke-width="0.318367"/>
<line x1="1239.09" y1="108.097" x2="-1.05676e-08" y2="108.096" stroke="#003057" stroke-width="0.318367"/>
<line x1="1239.09" y1="120.316" x2="-1.05676e-08" y2="120.316" stroke="#003057" stroke-width="0.318367"/>
<line x1="864.676" y1="5.43217e-09" x2="864.676" y2="780" stroke="#003057" stroke-width="0.318367"/>
<line x1="876.896" y1="5.43217e-09" x2="876.895" y2="780" stroke="#003057" stroke-width="0.318367"/>
<line x1="302.587" y1="5.43217e-09" x2="302.587" y2="780" stroke="#003057" stroke-width="0.318367"/>
<line x1="314.807" y1="5.43217e-09" x2="314.807" y2="780" stroke="#003057" stroke-width="0.318367"/>
<line x1="1239.09" y1="279.167" x2="-1.05845e-08" y2="279.167" stroke="#003057" stroke-width="0.318367"/>
<line x1="1239.09" y1="291.386" x2="-1.05845e-08" y2="291.386" stroke="#003057" stroke-width="0.318367"/>
<line x1="1035.75" y1="5.43217e-09" x2="1035.75" y2="780" stroke="#003057" stroke-width="0.318367"/>
<line x1="1047.97" y1="5.43217e-09" x2="1047.97" y2="780" stroke="#003057" stroke-width="0.318367"/>
<line x1="424.781" y1="5.43217e-09" x2="424.781" y2="780" stroke="#003057" stroke-width="0.318367"/>
<line x1="437" y1="5.43217e-09" x2="437" y2="780" stroke="#003057" stroke-width="0.318367"/>
<line x1="1239.09" y1="401.36" x2="-1.05845e-08" y2="401.36" stroke="#003057" stroke-width="0.318367"/>
<line x1="1239.09" y1="413.58" x2="-1.05845e-08" y2="413.579" stroke="#003057" stroke-width="0.318367"/>
<line x1="1157.94" y1="5.43217e-09" x2="1157.94" y2="780" stroke="#003057" stroke-width="0.318367"/>
<line x1="1219.04" y1="5.43217e-09" x2="1219.04" y2="780" stroke="#003057" stroke-width="0.318367"/>
<line x1="1170.16" y1="5.43217e-09" x2="1170.16" y2="780" stroke="#003057" stroke-width="0.318367"/>
<line x1="1231.26" y1="5.43217e-09" x2="1231.26" y2="780" stroke="#003057" stroke-width="0.318367"/>
<line x1="571.412" y1="5.43217e-09" x2="571.412" y2="780" stroke="#003057" stroke-width="0.318367"/>
<line x1="583.632" y1="5.43217e-09" x2="583.632" y2="780" stroke="#003057" stroke-width="0.318367"/>
<line x1="1239.09" y1="547.992" x2="-1.05845e-08" y2="547.992" stroke="#003057" stroke-width="0.318367"/>
<line x1="1239.09" y1="560.211" x2="-1.05845e-08" y2="560.211" stroke="#003057" stroke-width="0.318367"/>
<line x1="718.044" y1="5.43217e-09" x2="718.044" y2="780" stroke="#003057" stroke-width="0.318367"/>
<line x1="730.264" y1="5.43217e-09" x2="730.264" y2="780" stroke="#003057" stroke-width="0.318367"/>
<line x1="1239.09" y1="694.624" x2="-1.05845e-08" y2="694.624" stroke="#003057" stroke-width="0.318367"/>
<line x1="1239.09" y1="706.843" x2="-1.05845e-08" y2="706.843" stroke="#003057" stroke-width="0.318367"/>
</g>
</svg>
